# xmcd
#
# Track frame offsets: 
#        150
#        17606
#        27127
#        40013
#        54287
#        69391
#        78681
#        89299
#        102540
#        113300
#        122341
#        136648
#        149517
#        159282
#
# Disc length: 2335 seconds
#
# Revision: 0
# Processed by: cddbd v1.5.2PL0 Copyright (c) Steve Scherf et al.
# Submitted via: ExactAudioCopy v0.99pb3
#
DISCID=a2091d0e
DTITLE=Göran Isaksson - Det finns ljus
DYEAR=2008
DGENRE=Christian Rock
TTITLE0=Dagen skall komma
TTITLE1=Lyckan
TTITLE2=Varför Gud (Why me Lord)
TTITLE3=Gud kan göra det igen
TTITLE4=Sjung mig tillbaka hem (Sing me back home)
TTITLE5=Jag vet att Jesus kan (I know that Jesus can)
TTITLE6=Det finns ljus (Light at the end of darknes)
TTITLE7=Barnabön
TTITLE8=Demokrat
TTITLE9=Gud har omsorg om dig
TTITLE10=Har världen tyngt dig ned
TTITLE11=Gud hjälp mig (Help me)
TTITLE12=Förtärd
TTITLE13=Möte med Gud
EXTD=
EXTT0=
EXTT1=
EXTT2=
EXTT3=
EXTT4=
EXTT5=
EXTT6=
EXTT7=
EXTT8=
EXTT9=
EXTT10=
EXTT11=
EXTT12=
EXTT13=
PLAYORDER=
